# xmcd
#
# Track frame offsets:
#	150
#	20110
#	42315
#
# Disc length: 809 seconds
#
# Revision: 2
# Processed by: cddbd v1.5.2PL0 Copyright (c) Steve Scherf et al.
# Submitted via: EasyCDDAExtractor 2010.6.0.0
#
DISCID=21032703
DTITLE=Missy Misdemeanor Elliott - hit em wit da hee featuring lil kim and mocha
DYEAR=1998
DGENRE=R&B
TTITLE0=hit em wit da hee (Remix Edit)
TTITLE1=hit em wit da hee (instrumental)
TTITLE2=Beep me 911 (Remix)
EXTD=
EXTT0=
EXTT1=
EXTT2=
PLAYORDER=
